{
  "source": "C:\\Users\\Peter\\Desktop\\stuff\\MIUN\\quantitative_research\\video_compression\\videos\\HEVC_CLASS_B\\Kimono_1920x1080_24.y4m",
  "output": "C:\\Users\\Peter\\Desktop\\stuff\\MIUN\\quantitative_research\\video_compression\\compressed_videos\\HEVC_CLASS_B\\av1\\2.5\\Kimono_1920x1080_24_av1.mkv",
  "codec": "av1",
  "ok": "Input #0, yuv4mpegpipe, from 'C:\\Users\\Peter\\Desktop\\stuff\\MIUN\\quantitative_research\\video_compression\\videos\\HEVC_CLASS_B\\Kimono_1920x1080_24.y4m':\n  Duration: 00:00:10.00, start: 0.000000, bitrate: 597198 kb/s\n  Stream #0:0: Video: rawvideo (I420 / 0x30323449), yuv420p(progressive), 1920x1080, 24 fps, 24 tbr, 24 tbn\n[out#0/matroska @ 000001ad4d1f8ec0] Codec AVOption b:a (set bitrate (in bits/s)) has not been used for any stream. The most likely reason is either wrong type (e.g. a video option with no video streams) or that it is a private option of some decoder which was not actually used for any stream.\nStream mapping:\n  Stream #0:0 -> #0:0 (rawvideo (native) -> av1 (libsvtav1))\nPress [q] to stop, [?] for help\nSvt[info]: -------------------------------------------\nSvt[info]: SVT [version]:\tSVT-AV1 Encoder Lib v3.1.0-19-g6ecfe8ec\nSvt[info]: SVT [build]  :\tGCC 15.2.0\t 64 bit\nSvt[info]: LIB Build date: Aug 17 2025 11:37:13\nSvt[info]: -------------------------------------------\n[libsvtav1 @ 000001ad4d1fc080] Specified chroma sample location center is unsupported on the AV1 bit stream level. Usage of a container that allows passing this information - such as Matroska - is recommended.\nSvt[info]: Level of Parallelism: 5\nSvt[info]: Number of PPCS 93\nSvt[info]: [asm level on system : up to avx2]\nSvt[info]: [asm level selected : up to avx2]\nSvt[info]: -------------------------------------------\nSvt[info]: SVT [config]: main profile\ttier (auto)\tlevel (auto)\nSvt[info]: SVT [config]: width / height / fps numerator / fps denominator \t\t: 1920 / 1080 / 24 / 1\nSvt[info]: SVT [config]: bit-depth / color format \t\t\t\t\t: 8 / YUV420\nSvt[info]: SVT [config]: preset / tune / pred struct \t\t\t\t\t: 4 / PSNR / random access\nSvt[info]: SVT [config]: gop size / mini-gop size / key-frame type \t\t\t: 161 / 16 / key frame\nSvt[info]: SVT [config]: BRC mode / target bitrate (kbps)\t\t\t\t: VBR / 2500 \nSvt[info]: SVT [config]: AQ mode / Variance Boost \t\t\t\t\t: 2 / 0\nSvt[info]: SVT [config]: sharpness / luminance-based QP bias \t\t\t\t: 0 / 0\nSvt[info]: SVT [config]: QP scale compress strength \t\t\t\t\t: 0\nSvt[info]: -------------------------------------------\nOutput #0, matroska, to 'C:\\Users\\Peter\\Desktop\\stuff\\MIUN\\quantitative_research\\video_compression\\compressed_videos\\HEVC_CLASS_B\\av1\\2.5\\Kimono_1920x1080_24_av1.mkv':\n  Metadata:\n    encoder         : Lavf62.3.100\n  Stream #0:0: Video: av1 (AV01 / 0x31305641), yuv420p(tv, progressive), 1920x1080, q=2-31, 2500 kb/s, 24 fps, 1k tbn\n    Metadata:\n      encoder         : Lavc62.11.100 libsvtav1\n    Side data:\n      cpb: bitrate max/min/avg: 0/0/2500000 buffer size: 2500000 vbv_delay: N/A\nframe=    0 fps=0.0 q=0.0 size=       0KiB time=N/A bitrate=N/A speed=N/A elapsed=0:00:04.71    \nframe=    0 fps=0.0 q=0.0 size=       0KiB time=N/A bitrate=N/A speed=N/A elapsed=0:00:09.25    \nframe=    0 fps=0.0 q=0.0 size=       0KiB time=N/A bitrate=N/A speed=N/A elapsed=0:00:10.06    \nframe=    0 fps=0.0 q=0.0 size=       0KiB time=N/A bitrate=N/A speed=N/A elapsed=0:00:10.92    \nframe=    1 fps=0.1 q=19.0 size=       1KiB time=00:00:00.00 bitrate=N/A speed=   0x elapsed=0:00:11.78    \nframe=    1 fps=0.1 q=19.0 size=       1KiB time=00:00:00.00 bitrate=N/A speed=   0x elapsed=0:00:12.60    \nframe=    1 fps=0.1 q=19.0 size=       1KiB time=00:00:00.00 bitrate=N/A speed=   0x elapsed=0:00:13.11    \nframe=    1 fps=0.1 q=19.0 size=       1KiB time=00:00:00.00 bitrate=N/A speed=   0x elapsed=0:00:13.63    \nframe=    1 fps=0.1 q=19.0 size=       1KiB time=00:00:00.00 bitrate=N/A speed=   0x elapsed=0:00:14.15    \nframe=    1 fps=0.1 q=19.0 size=       1KiB time=00:00:00.00 bitrate=N/A speed=   0x elapsed=0:00:14.65    \nframe=    1 fps=0.1 q=19.0 size=       1KiB time=00:00:00.00 bitrate=N/A speed=   0x elapsed=0:00:15.18    \nframe=    1 fps=0.1 q=19.0 size=       1KiB time=00:00:00.00 bitrate=N/A speed=   0x elapsed=0:00:15.70    \nframe=    1 fps=0.1 q=19.0 size=       1KiB time=00:00:00.00 bitrate=N/A speed=   0x elapsed=0:00:16.21    \nframe=    1 fps=0.1 q=19.0 size=       1KiB time=00:00:00.00 bitrate=N/A speed=   0x elapsed=0:00:16.74    \nframe=    1 fps=0.1 q=19.0 size=       1KiB time=00:00:00.00 bitrate=N/A speed=   0x elapsed=0:00:17.25    \nframe=    2 fps=0.1 q=38.0 size=       1KiB time=00:00:00.04 bitrate= 107.9kbits/s speed=0.00235x elapsed=0:00:17.76    \nframe=    4 fps=0.2 q=38.0 size=       1KiB time=00:00:00.12 bitrate=  36.0kbits/s speed=0.00683x elapsed=0:00:18.29    \nframe=    4 fps=0.2 q=38.0 size=       1KiB time=00:00:00.12 bitrate=  36.0kbits/s speed=0.00665x elapsed=0:00:18.80    \nframe=    5 fps=0.3 q=34.0 size=       1KiB time=00:00:00.16 bitrate=  27.0kbits/s speed=0.00863x elapsed=0:00:19.31    \nframe=    6 fps=0.3 q=38.0 size=       1KiB time=00:00:00.20 bitrate=  21.6kbits/s speed=0.0105x elapsed=0:00:19.83    \nframe=    6 fps=0.3 q=38.0 size=       1KiB time=00:00:00.20 bitrate=  21.6kbits/s speed=0.0102x elapsed=0:00:20.35    \nframe=    7 fps=0.3 q=34.0 size=       1KiB time=00:00:00.25 bitrate=  18.0kbits/s speed=0.012x elapsed=0:00:20.86    \nframe=    7 fps=0.3 q=34.0 size=       1KiB time=00:00:00.25 bitrate=  18.0kbits/s speed=0.0117x elapsed=0:00:21.37    \nframe=    7 fps=0.3 q=34.0 size=       1KiB time=00:00:00.25 bitrate=  18.0kbits/s speed=0.0114x elapsed=0:00:21.89    \nframe=    8 fps=0.4 q=35.0 size=       1KiB time=00:00:00.29 bitrate=  15.4kbits/s speed=0.013x elapsed=0:00:22.41    \nframe=    8 fps=0.3 q=35.0 size=       1KiB time=00:00:00.29 bitrate=  15.4kbits/s speed=0.0127x elapsed=0:00:22.92    \nframe=   10 fps=0.4 q=33.0 size=       1KiB time=00:00:00.37 bitrate=  12.0kbits/s speed=0.016x elapsed=0:00:23.44    \nframe=   12 fps=0.5 q=32.0 size=       1KiB time=00:00:00.45 bitrate=   9.8kbits/s speed=0.0191x elapsed=0:00:23.96    \nframe=   12 fps=0.5 q=32.0 size=       1KiB time=00:00:00.45 bitrate=   9.8kbits/s speed=0.0187x elapsed=0:00:24.47    \nframe=   13 fps=0.5 q=31.0 size=       1KiB time=00:00:00.50 bitrate=   9.0kbits/s speed=0.02x elapsed=0:00:24.98    \nframe=   14 fps=0.5 q=32.0 size=       1KiB time=00:00:00.54 bitrate=   8.3kbits/s speed=0.0212x elapsed=0:00:25.51    \nframe=   17 fps=0.7 q=24.0 size=       1KiB time=00:00:00.66 bitrate=   6.7kbits/s speed=0.0256x elapsed=0:00:26.02    \nframe=   17 fps=0.6 q=24.0 size=       1KiB time=00:00:00.66 bitrate=   6.7kbits/s speed=0.0251x elapsed=0:00:26.53    \nframe=   17 fps=0.6 q=24.0 size=       1KiB time=00:00:00.66 bitrate=   6.7kbits/s speed=0.0246x elapsed=0:00:27.05    \nframe=   18 fps=0.7 q=34.0 size=       1KiB time=00:00:00.70 bitrate=   6.3kbits/s speed=0.0257x elapsed=0:00:27.57    \nframe=   19 fps=0.7 q=33.0 size=       1KiB time=00:00:00.75 bitrate=   6.0kbits/s speed=0.0267x elapsed=0:00:28.08    \nframe=   20 fps=0.7 q=34.0 size=       1KiB time=00:00:00.79 bitrate=   5.7kbits/s speed=0.0277x elapsed=0:00:28.59    \nframe=   20 fps=0.7 q=34.0 size=       1KiB time=00:00:00.79 bitrate=   5.7kbits/s speed=0.0272x elapsed=0:00:29.11    \nframe=   21 fps=0.7 q=32.0 size=       1KiB time=00:00:00.83 bitrate=   5.4kbits/s speed=0.0281x elapsed=0:00:29.62    \nframe=   22 fps=0.7 q=33.0 size=       1KiB time=00:00:00.87 bitrate=   5.1kbits/s speed=0.029x elapsed=0:00:30.14    \nframe=   22 fps=0.7 q=33.0 size=       1KiB time=00:00:00.87 bitrate=   5.1kbits/s speed=0.0285x elapsed=0:00:30.67    \nframe=   22 fps=0.7 q=33.0 size=       1KiB time=00:00:00.87 bitrate=   5.1kbits/s speed=0.028x elapsed=0:00:31.23    \nframe=   23 fps=0.7 q=33.0 size=       1KiB time=00:00:00.91 bitrate=   4.9kbits/s speed=0.0289x elapsed=0:00:31.77    \nframe=   23 fps=0.7 q=33.0 size=       1KiB time=00:00:00.91 bitrate=   4.9kbits/s speed=0.0284x elapsed=0:00:32.32    \nframe=   24 fps=0.7 q=33.0 size=       1KiB time=00:00:00.95 bitrate=   4.7kbits/s speed=0.0292x elapsed=0:00:32.85    \nframe=   26 fps=0.8 q=33.0 size=       1KiB time=00:00:01.04 bitrate=   4.3kbits/s speed=0.0312x elapsed=0:00:33.38    \nframe=   26 fps=0.8 q=33.0 size=       1KiB time=00:00:01.04 bitrate=   4.3kbits/s speed=0.0307x elapsed=0:00:33.90    \nframe=   26 fps=0.8 q=33.0 size=       1KiB time=00:00:01.04 bitrate=   4.3kbits/s speed=0.0303x elapsed=0:00:34.42    \nframe=   27 fps=0.8 q=33.0 size=       1KiB time=00:00:01.04 bitrate=   4.3kbits/s speed=0.0298x elapsed=0:00:34.94    \nframe=   27 fps=0.8 q=33.0 size=       1KiB time=00:00:01.08 bitrate=   4.2kbits/s speed=0.0306x elapsed=0:00:35.45    \nframe=   27 fps=0.8 q=33.0 size=       1KiB time=00:00:01.08 bitrate=   4.2kbits/s speed=0.0301x elapsed=0:00:35.98    \nframe=   28 fps=0.8 q=32.0 size=       1KiB time=00:00:01.12 bitrate=   4.0kbits/s speed=0.0308x elapsed=0:00:36.48    \nframe=   28 fps=0.8 q=32.0 size=       1KiB time=00:00:01.12 bitrate=   4.0kbits/s speed=0.0304x elapsed=0:00:37.00    \nframe=   29 fps=0.8 q=31.0 size=       1KiB time=00:00:01.16 bitrate=   3.9kbits/s speed=0.0311x elapsed=0:00:37.51    \nframe=   30 fps=0.8 q=34.0 size=       1KiB time=00:00:01.20 bitrate=   3.7kbits/s speed=0.0318x elapsed=0:00:38.04    \nframe=   32 fps=0.8 q=34.0 size=       1KiB time=00:00:01.29 bitrate=   3.5kbits/s speed=0.0335x elapsed=0:00:38.55    \nframe=   32 fps=0.8 q=34.0 size=       1KiB time=00:00:01.29 bitrate=   3.5kbits/s speed=0.0331x elapsed=0:00:39.07    \nframe=   33 fps=0.8 q=21.0 size=       1KiB time=00:00:01.33 bitrate=   3.4kbits/s speed=0.0337x elapsed=0:00:39.57    \nframe=   33 fps=0.8 q=21.0 size=       1KiB time=00:00:01.33 bitrate=   3.4kbits/s speed=0.0333x elapsed=0:00:40.09    \nframe=   34 fps=0.8 q=35.0 size=       1KiB time=00:00:01.37 bitrate=   3.3kbits/s speed=0.0339x elapsed=0:00:40.60    \nframe=   34 fps=0.8 q=35.0 size=       1KiB time=00:00:01.37 bitrate=   3.3kbits/s speed=0.0334x elapsed=0:00:41.13    \nframe=   35 fps=0.8 q=34.0 size=       1KiB time=00:00:01.41 bitrate=   3.2kbits/s speed=0.034x elapsed=0:00:41.64    \nframe=   35 fps=0.8 q=34.0 size=       1KiB time=00:00:01.41 bitrate=   3.2kbits/s speed=0.0336x elapsed=0:00:42.17    \nframe=   35 fps=0.8 q=34.0 size=       1KiB time=00:00:01.41 bitrate=   3.2kbits/s speed=0.0332x elapsed=0:00:42.68    \nframe=   36 fps=0.8 q=35.0 size=       1KiB time=00:00:01.45 bitrate=   3.1kbits/s speed=0.0338x elapsed=0:00:43.20    \nframe=   37 fps=0.8 q=32.0 size=       1KiB time=00:00:01.50 bitrate=   3.0kbits/s speed=0.0343x elapsed=0:00:43.72    \nframe=   38 fps=0.9 q=35.0 size=       1KiB time=00:00:01.54 bitrate=   2.9kbits/s speed=0.0348x elapsed=0:00:44.24    \nframe=   38 fps=0.8 q=35.0 size=       1KiB time=00:00:01.54 bitrate=   2.9kbits/s speed=0.0344x elapsed=0:00:44.75    \nframe=   38 fps=0.8 q=35.0 size=       1KiB time=00:00:01.54 bitrate=   2.9kbits/s speed=0.034x elapsed=0:00:45.28    \nframe=   38 fps=0.8 q=35.0 size=       1KiB time=00:00:01.54 bitrate=   2.9kbits/s speed=0.0337x elapsed=0:00:45.80    \nframe=   39 fps=0.8 q=34.0 size=       1KiB time=00:00:01.58 bitrate=   2.8kbits/s speed=0.0342x elapsed=0:00:46.31    \nframe=   39 fps=0.8 q=34.0 size=       1KiB time=00:00:01.58 bitrate=   2.8kbits/s speed=0.0338x elapsed=0:00:46.83    \nframe=   39 fps=0.8 q=34.0 size=       1KiB time=00:00:01.58 bitrate=   2.8kbits/s speed=0.0334x elapsed=0:00:47.35    \nframe=   39 fps=0.8 q=34.0 size=       1KiB time=00:00:01.58 bitrate=   2.8kbits/s speed=0.0331x elapsed=0:00:47.89    \nframe=   41 fps=0.8 q=30.0 size=       1KiB time=00:00:01.66 bitrate=   2.7kbits/s speed=0.0344x elapsed=0:00:48.41    \nframe=   41 fps=0.8 q=30.0 size=       1KiB time=00:00:01.66 bitrate=   2.7kbits/s speed=0.0341x elapsed=0:00:48.92    \nframe=   42 fps=0.8 q=35.0 size=       1KiB time=00:00:01.70 bitrate=   2.6kbits/s speed=0.0345x elapsed=0:00:49.45    \nframe=   43 fps=0.9 q=33.0 size=       1KiB time=00:00:01.75 bitrate=   2.6kbits/s speed=0.035x elapsed=0:00:49.98    \nframe=   43 fps=0.9 q=33.0 size=       1KiB time=00:00:01.75 bitrate=   2.6kbits/s speed=0.0347x elapsed=0:00:50.50    \nframe=   43 fps=0.8 q=33.0 size=       1KiB time=00:00:01.75 bitrate=   2.6kbits/s speed=0.0343x elapsed=0:00:51.01    \nframe=   44 fps=0.9 q=34.0 size=       1KiB time=00:00:01.79 bitrate=   2.5kbits/s speed=0.0348x elapsed=0:00:51.54    \nframe=   46 fps=0.9 q=36.0 size=       1KiB time=00:00:01.87 bitrate=   2.4kbits/s speed=0.036x elapsed=0:00:52.06    \nframe=   47 fps=0.9 q=34.0 size=       1KiB time=00:00:01.91 bitrate=   2.3kbits/s speed=0.0364x elapsed=0:00:52.59    \nframe=   48 fps=0.9 q=36.0 size=       1KiB time=00:00:01.95 bitrate=   2.3kbits/s speed=0.0369x elapsed=0:00:53.12    \nframe=   48 fps=0.9 q=36.0 size=       1KiB time=00:00:01.95 bitrate=   2.3kbits/s speed=0.0365x elapsed=0:00:53.64    \nframe=   49 fps=0.9 q=20.0 size=       1KiB time=00:00:02.00 bitrate=   2.2kbits/s speed=0.0369x elapsed=0:00:54.16    \nframe=   49 fps=0.9 q=20.0 size=       1KiB time=00:00:02.00 bitrate=   2.2kbits/s speed=0.0366x elapsed=0:00:54.68    \nframe=   50 fps=0.9 q=37.0 size=       1KiB time=00:00:02.04 bitrate=   2.2kbits/s speed=0.037x elapsed=0:00:55.20    \nframe=   50 fps=0.9 q=37.0 size=       1KiB time=00:00:02.04 bitrate=   2.2kbits/s speed=0.0366x elapsed=0:00:55.72    \nframe=   51 fps=0.9 q=36.0 size=       1KiB time=00:00:02.08 bitrate=   2.2kbits/s speed=0.037x elapsed=0:00:56.25    \nframe=   51 fps=0.9 q=36.0 size=       1KiB time=00:00:02.08 bitrate=   2.2kbits/s speed=0.0367x elapsed=0:00:56.76    \nframe=   51 fps=0.9 q=36.0 size=       1KiB time=00:00:02.08 bitrate=   2.2kbits/s speed=0.0364x elapsed=0:00:57.28    \nframe=   52 fps=0.9 q=37.0 size=       1KiB time=00:00:02.12 bitrate=   2.1kbits/s speed=0.0368x elapsed=0:00:57.79    \nframe=   52 fps=0.9 q=37.0 size=       1KiB time=00:00:02.12 bitrate=   2.1kbits/s speed=0.0364x elapsed=0:00:58.31    \nframe=   53 fps=0.9 q=34.0 size=       1KiB time=00:00:02.16 bitrate=   2.1kbits/s speed=0.0368x elapsed=0:00:58.84    \nframe=   53 fps=0.9 q=34.0 size=       1KiB time=00:00:02.16 bitrate=   2.1kbits/s speed=0.0365x elapsed=0:00:59.34    \nframe=   54 fps=0.9 q=37.0 size=       1KiB time=00:00:02.20 bitrate=   2.0kbits/s speed=0.0369x elapsed=0:00:59.87    \nframe=   54 fps=0.9 q=37.0 size=       1KiB time=00:00:02.20 bitrate=   2.0kbits/s speed=0.0366x elapsed=0:01:00.38    \nframe=   54 fps=0.9 q=37.0 size=       1KiB time=00:00:02.20 bitrate=   2.0kbits/s speed=0.0363x elapsed=0:01:00.91    \nframe=   55 fps=0.9 q=36.0 size=       1KiB time=00:00:02.25 bitrate=   2.0kbits/s speed=0.0366x elapsed=0:01:01.43    \nframe=   55 fps=0.9 q=36.0 size=       1KiB time=00:00:02.25 bitrate=   2.0kbits/s speed=0.0363x elapsed=0:01:01.95    \nframe=   55 fps=0.9 q=36.0 size=       1KiB time=00:00:02.25 bitrate=   2.0kbits/s speed=0.036x elapsed=0:01:02.47    \nframe=   56 fps=0.9 q=37.0 size=       1KiB time=00:00:02.29 bitrate=   2.0kbits/s speed=0.0364x elapsed=0:01:02.99    \nframe=   58 fps=0.9 q=37.0 size=       1KiB time=00:00:02.37 bitrate=   1.9kbits/s speed=0.0374x elapsed=0:01:03.51    \nframe=   58 fps=0.9 q=37.0 size=       1KiB time=00:00:02.37 bitrate=   1.9kbits/s speed=0.0371x elapsed=0:01:04.03    \nframe=   59 fps=0.9 q=35.0 size=       1KiB time=00:00:02.41 bitrate=   1.9kbits/s speed=0.0374x elapsed=0:01:04.55    \nframe=   59 fps=0.9 q=35.0 size=       1KiB time=00:00:02.41 bitrate=   1.9kbits/s speed=0.0371x elapsed=0:01:05.07    \nframe=   60 fps=0.9 q=34.0 size=       1KiB time=00:00:02.45 bitrate=   1.8kbits/s speed=0.0375x elapsed=0:01:05.60    \nframe=   60 fps=0.9 q=34.0 size=       1KiB time=00:00:02.45 bitrate=   1.8kbits/s speed=0.0372x elapsed=0:01:06.12    \nframe=   61 fps=0.9 q=31.0 size=       1KiB time=00:00:02.50 bitrate=   1.8kbits/s speed=0.0375x elapsed=0:01:06.64    \nframe=   61 fps=0.9 q=31.0 size=       1KiB time=00:00:02.50 bitrate=   1.8kbits/s speed=0.0372x elapsed=0:01:07.18    \nframe=   64 fps=0.9 q=36.0 size=       1KiB time=00:00:02.62 bitrate=   1.7kbits/s speed=0.0388x elapsed=0:01:07.68    \nframe=   64 fps=0.9 q=36.0 size=       1KiB time=00:00:02.62 bitrate=   1.7kbits/s speed=0.0385x elapsed=0:01:08.21    \nframe=   65 fps=0.9 q=20.0 size=       1KiB time=00:00:02.66 bitrate=   1.7kbits/s speed=0.0388x elapsed=0:01:08.73    \nframe=   65 fps=0.9 q=20.0 size=       1KiB time=00:00:02.66 bitrate=   1.7kbits/s speed=0.0385x elapsed=0:01:09.25    \nframe=   66 fps=0.9 q=37.0 size=       1KiB time=00:00:02.70 bitrate=   1.7kbits/s speed=0.0388x elapsed=0:01:09.79    \nframe=   67 fps=1.0 q=36.0 size=       1KiB time=00:00:02.75 bitrate=   1.6kbits/s speed=0.0391x elapsed=0:01:10.30    \nframe=   67 fps=0.9 q=36.0 size=       1KiB time=00:00:02.75 bitrate=   1.6kbits/s speed=0.0388x elapsed=0:01:10.83    \nframe=   67 fps=0.9 q=36.0 size=       1KiB time=00:00:02.75 bitrate=   1.6kbits/s speed=0.0385x elapsed=0:01:11.35    \nframe=   68 fps=0.9 q=37.0 size=       1KiB time=00:00:02.79 bitrate=   1.6kbits/s speed=0.0388x elapsed=0:01:11.87    \nframe=   68 fps=0.9 q=37.0 size=       1KiB time=00:00:02.79 bitrate=   1.6kbits/s speed=0.0386x elapsed=0:01:12.39    \nframe=   69 fps=0.9 q=34.0 size=       1KiB time=00:00:02.83 bitrate=   1.6kbits/s speed=0.0389x elapsed=0:01:12.92    \nframe=   70 fps=1.0 q=37.0 size=       1KiB time=00:00:02.87 bitrate=   1.6kbits/s speed=0.0391x elapsed=0:01:13.45    \nframe=   70 fps=0.9 q=37.0 size=       1KiB time=00:00:02.87 bitrate=   1.6kbits/s speed=0.0389x elapsed=0:01:13.97    \nframe=   70 fps=0.9 q=37.0 size=       1KiB time=00:00:02.87 bitrate=   1.6kbits/s speed=0.0386x elapsed=0:01:14.49    \nframe=   71 fps=0.9 q=36.0 size=       1KiB time=00:00:02.91 bitrate=   1.5kbits/s speed=0.0389x elapsed=0:01:15.00    \nframe=   71 fps=0.9 q=36.0 size=       1KiB time=00:00:02.91 bitrate=   1.5kbits/s speed=0.0386x elapsed=0:01:15.52    \nframe=   72 fps=0.9 q=37.0 size=       1KiB time=00:00:02.95 bitrate=   1.5kbits/s speed=0.0389x elapsed=0:01:16.03    \nframe=   74 fps=1.0 q=37.0 size=       1KiB time=00:00:03.04 bitrate=   1.5kbits/s speed=0.0397x elapsed=0:01:16.56    \nframe=   75 fps=1.0 q=35.0 size=       1KiB time=00:00:03.08 bitrate=   1.5kbits/s speed=0.04x elapsed=0:01:17.08    \nframe=   75 fps=1.0 q=35.0 size=       1KiB time=00:00:03.08 bitrate=   1.5kbits/s speed=0.0397x elapsed=0:01:17.60    \nframe=   76 fps=1.0 q=37.0 size=       1KiB time=00:00:03.12 bitrate=   1.4kbits/s speed=0.04x elapsed=0:01:18.12    \nframe=   77 fps=1.0 q=31.0 size=       1KiB time=00:00:03.16 bitrate=   1.4kbits/s speed=0.0403x elapsed=0:01:18.64    \nframe=   78 fps=1.0 q=36.0 size=       1KiB time=00:00:03.20 bitrate=   1.4kbits/s speed=0.0405x elapsed=0:01:19.16    \nframe=   80 fps=1.0 q=36.0 size=       1KiB time=00:00:03.29 bitrate=   1.4kbits/s speed=0.0413x elapsed=0:01:19.68    \nframe=   80 fps=1.0 q=36.0 size=       1KiB time=00:00:03.29 bitrate=   1.4kbits/s speed=0.041x elapsed=0:01:20.20    \nframe=   81 fps=1.0 q=21.0 size=       1KiB time=00:00:03.33 bitrate=   1.3kbits/s speed=0.0413x elapsed=0:01:20.73    \nframe=   81 fps=1.0 q=21.0 size=       1KiB time=00:00:03.33 bitrate=   1.3kbits/s speed=0.041x elapsed=0:01:21.27    \nframe=   82 fps=1.0 q=37.0 size=       1KiB time=00:00:03.37 bitrate=   1.3kbits/s speed=0.0413x elapsed=0:01:21.81    \nframe=   82 fps=1.0 q=37.0 size=       1KiB time=00:00:03.37 bitrate=   1.3kbits/s speed=0.041x elapsed=0:01:22.33    \nframe=   83 fps=1.0 q=36.0 size=       1KiB time=00:00:03.41 bitrate=   1.3kbits/s speed=0.0412x elapsed=0:01:22.84    \nframe=   83 fps=1.0 q=36.0 size=       1KiB time=00:00:03.41 bitrate=   1.3kbits/s speed=0.041x elapsed=0:01:23.36    \nframe=   83 fps=1.0 q=36.0 size=       1KiB time=00:00:03.41 bitrate=   1.3kbits/s speed=0.0407x elapsed=0:01:23.89    \nframe=   84 fps=1.0 q=37.0 size=       1KiB time=00:00:03.45 bitrate=   1.3kbits/s speed=0.041x elapsed=0:01:24.43    \nframe=   85 fps=1.0 q=34.0 size=       1KiB time=00:00:03.50 bitrate=   1.3kbits/s speed=0.0411x elapsed=0:01:25.12    \nframe=   86 fps=1.0 q=35.0 size=       1KiB time=00:00:03.54 bitrate=   1.3kbits/s speed=0.0414x elapsed=0:01:25.64    \nframe=   86 fps=1.0 q=35.0 size=       1KiB time=00:00:03.54 bitrate=   1.3kbits/s speed=0.0411x elapsed=0:01:26.16    \nframe=   87 fps=1.0 q=32.0 size=       1KiB time=00:00:03.58 bitrate=   1.3kbits/s speed=0.0413x elapsed=0:01:26.86    \nframe=   87 fps=1.0 q=32.0 size=       1KiB time=00:00:03.58 bitrate=   1.3kbits/s speed=0.041x elapsed=0:01:27.37    \nframe=   88 fps=1.0 q=35.0 size=       1KiB time=00:00:03.62 bitrate=   1.2kbits/s speed=0.0412x elapsed=0:01:27.89    \nframe=   89 fps=1.0 q=30.0 size=       1KiB time=00:00:03.66 bitrate=   1.2kbits/s speed=0.0415x elapsed=0:01:28.40    \nframe=   91 fps=1.0 q=35.0 size=       1KiB time=00:00:03.75 bitrate=   1.2kbits/s speed=0.0422x elapsed=0:01:28.93    \nframe=   91 fps=1.0 q=35.0 size=       1KiB time=00:00:03.75 bitrate=   1.2kbits/s speed=0.0419x elapsed=0:01:29.44    \nframe=   91 fps=1.0 q=35.0 size=       1KiB time=00:00:03.75 bitrate=   1.2kbits/s speed=0.0417x elapsed=0:01:29.96    \nframe=   93 fps=1.0 q=31.0 size=       1KiB time=00:00:03.83 bitrate=   1.2kbits/s speed=0.0424x elapsed=0:01:30.47    \nframe=   95 fps=1.0 q=34.0 size=       1KiB time=00:00:03.91 bitrate=   1.1kbits/s speed=0.043x elapsed=0:01:30.98    \nframe=   96 fps=1.0 q=37.0 size=       1KiB time=00:00:03.95 bitrate=   1.1kbits/s speed=0.0433x elapsed=0:01:31.50    \nframe=   97 fps=1.1 q=21.0 size=       1KiB time=00:00:04.00 bitrate=   1.1kbits/s speed=0.0435x elapsed=0:01:32.02    \nframe=   98 fps=1.1 q=37.0 size=       1KiB time=00:00:04.04 bitrate=   1.1kbits/s speed=0.0437x elapsed=0:01:32.53    \nframe=   99 fps=1.1 q=36.0 size=       1KiB time=00:00:04.08 bitrate=   1.1kbits/s speed=0.0439x elapsed=0:01:33.04    \nframe=  100 fps=1.1 q=37.0 size=       1KiB time=00:00:04.12 bitrate=   1.1kbits/s speed=0.0441x elapsed=0:01:33.56    \nframe=  102 fps=1.1 q=37.0 size=       1KiB time=00:00:04.20 bitrate=   1.1kbits/s speed=0.0447x elapsed=0:01:34.08    \nframe=  102 fps=1.1 q=37.0 size=       1KiB time=00:00:04.20 bitrate=   1.1kbits/s speed=0.0445x elapsed=0:01:34.59    \nframe=  102 fps=1.1 q=37.0 size=       1KiB time=00:00:04.20 bitrate=   1.1kbits/s speed=0.0442x elapsed=0:01:35.11    \nframe=  103 fps=1.1 q=32.0 size=       1KiB time=00:00:04.25 bitrate=   1.1kbits/s speed=0.0444x elapsed=0:01:35.63    \nframe=  104 fps=1.1 q=37.0 size=       1KiB time=00:00:04.29 bitrate=   1.0kbits/s speed=0.0446x elapsed=0:01:36.14    \nframe=  105 fps=1.1 q=30.0 size=       1KiB time=00:00:04.33 bitrate=   1.0kbits/s speed=0.0448x elapsed=0:01:36.66    \nframe=  107 fps=1.1 q=34.0 size=       1KiB time=00:00:04.41 bitrate=   1.0kbits/s speed=0.0454x elapsed=0:01:37.17    \nframe=  108 fps=1.1 q=39.0 size=       1KiB time=00:00:04.45 bitrate=   1.0kbits/s speed=0.0456x elapsed=0:01:37.69    \nframe=  110 fps=1.1 q=39.0 size=       1KiB time=00:00:04.54 bitrate=   1.0kbits/s speed=0.0462x elapsed=0:01:38.20    \nframe=  111 fps=1.1 q=35.0 size=       1KiB time=00:00:04.58 bitrate=   1.0kbits/s speed=0.0464x elapsed=0:01:38.72    \nframe=  112 fps=1.1 q=39.0 size=       1KiB time=00:00:04.62 bitrate=   1.0kbits/s speed=0.0466x elapsed=0:01:39.24    \nframe=  114 fps=1.1 q=39.0 size=       1KiB time=00:00:04.70 bitrate=   1.0kbits/s speed=0.0472x elapsed=0:01:39.76    \nframe=  116 fps=1.2 q=39.0 size=       1KiB time=00:00:04.79 bitrate=   0.9kbits/s speed=0.0478x elapsed=0:01:40.27    \nframe=  117 fps=1.2 q=35.0 size=       1KiB time=00:00:04.83 bitrate=   0.9kbits/s speed=0.048x elapsed=0:01:40.79    \nframe=  118 fps=1.2 q=39.0 size=       1KiB time=00:00:04.87 bitrate=   0.9kbits/s speed=0.0481x elapsed=0:01:41.30    \nframe=  118 fps=1.2 q=39.0 size=       1KiB time=00:00:04.87 bitrate=   0.9kbits/s speed=0.0479x elapsed=0:01:41.81    \nframe=  119 fps=1.2 q=37.0 size=       1KiB time=00:00:04.91 bitrate=   0.9kbits/s speed=0.048x elapsed=0:01:42.33    \nframe=  119 fps=1.2 q=37.0 size=       1KiB time=00:00:04.91 bitrate=   0.9kbits/s speed=0.0478x elapsed=0:01:42.84    \nframe=  120 fps=1.2 q=39.0 size=       1KiB time=00:00:04.95 bitrate=   0.9kbits/s speed=0.048x elapsed=0:01:43.36    \nframe=  123 fps=1.2 q=36.0 size=    1536KiB time=00:00:05.08 bitrate=2475.3kbits/s speed=0.0489x elapsed=0:01:43.87    \nframe=  123 fps=1.2 q=36.0 size=    1536KiB time=00:00:05.08 bitrate=2475.3kbits/s speed=0.0487x elapsed=0:01:44.39    \nframe=  125 fps=1.2 q=32.0 size=    1536KiB time=00:00:05.16 bitrate=2435.4kbits/s speed=0.0492x elapsed=0:01:44.90    \nframe=  125 fps=1.2 q=32.0 size=    1536KiB time=00:00:05.16 bitrate=2435.4kbits/s speed=0.049x elapsed=0:01:45.43    \nframe=  128 fps=1.2 q=39.0 size=    1536KiB time=00:00:05.29 bitrate=2377.9kbits/s speed=0.0499x elapsed=0:01:45.94    \nframe=  129 fps=1.2 q=21.0 size=    1536KiB time=00:00:05.33 bitrate=2359.3kbits/s speed=0.0501x elapsed=0:01:46.45    \nframe=  131 fps=1.2 q=37.0 size=    1536KiB time=00:00:05.41 bitrate=2323.0kbits/s speed=0.0506x elapsed=0:01:46.97    \nframe=  131 fps=1.2 q=37.0 size=    1536KiB time=00:00:05.41 bitrate=2323.0kbits/s speed=0.0504x elapsed=0:01:47.48    \nframe=  133 fps=1.2 q=35.0 size=    1536KiB time=00:00:05.50 bitrate=2287.8kbits/s speed=0.0509x elapsed=0:01:48.01    \nframe=  134 fps=1.2 q=39.0 size=    1536KiB time=00:00:05.54 bitrate=2270.6kbits/s speed=0.0511x elapsed=0:01:48.51    \nframe=  134 fps=1.2 q=39.0 size=    1536KiB time=00:00:05.54 bitrate=2270.6kbits/s speed=0.0508x elapsed=0:01:49.03    \nframe=  135 fps=1.2 q=34.0 size=    1536KiB time=00:00:05.58 bitrate=2253.7kbits/s speed=0.051x elapsed=0:01:49.55    \nframe=  136 fps=1.2 q=39.0 size=    1536KiB time=00:00:05.62 bitrate=2237.0kbits/s speed=0.0511x elapsed=0:01:50.07    \nframe=  138 fps=1.2 q=39.0 size=    1536KiB time=00:00:05.70 bitrate=2204.3kbits/s speed=0.0516x elapsed=0:01:50.57    \nframe=  139 fps=1.3 q=36.0 size=    1536KiB time=00:00:05.75 bitrate=2188.3kbits/s speed=0.0518x elapsed=0:01:51.09    \nframe=  140 fps=1.3 q=39.0 size=    1536KiB time=00:00:05.79 bitrate=2172.6kbits/s speed=0.0519x elapsed=0:01:51.61    \nframe=  141 fps=1.3 q=33.0 size=    1536KiB time=00:00:05.83 bitrate=2157.1kbits/s speed=0.052x elapsed=0:01:52.12    \nframe=  145 fps=1.3 q=17.0 size=    1536KiB time=00:00:06.00 bitrate=2097.2kbits/s speed=0.0533x elapsed=0:01:52.64    \nframe=  149 fps=1.3 q=36.0 size=    1536KiB time=00:00:06.16 bitrate=2040.5kbits/s speed=0.0545x elapsed=0:01:53.16    \nframe=  149 fps=1.3 q=36.0 size=    1536KiB time=00:00:06.16 bitrate=2040.5kbits/s speed=0.0542x elapsed=0:01:53.67    \nframe=  153 fps=1.3 q=33.0 size=    1536KiB time=00:00:06.33 bitrate=1986.8kbits/s speed=0.0555x elapsed=0:01:54.18    \nframe=  153 fps=1.3 q=33.0 size=    1536KiB time=00:00:06.33 bitrate=1986.8kbits/s speed=0.0552x elapsed=0:01:54.70    \nframe=  153 fps=1.3 q=33.0 size=    1536KiB time=00:00:06.33 bitrate=1986.8kbits/s speed=0.055x elapsed=0:01:55.21    \nframe=  155 fps=1.3 q=38.0 size=    1536KiB time=00:00:06.41 bitrate=1961.0kbits/s speed=0.0554x elapsed=0:01:55.74    \nframe=  157 fps=1.4 q=36.0 size=    1536KiB time=00:00:06.50 bitrate=1935.8kbits/s speed=0.0559x elapsed=0:01:56.25    \nframe=  157 fps=1.3 q=36.0 size=    1536KiB time=00:00:06.50 bitrate=1935.8kbits/s speed=0.0557x elapsed=0:01:56.77    \nframe=  162 fps=1.4 q=12.0 size=    1536KiB time=00:00:06.70 bitrate=1875.7kbits/s speed=0.0572x elapsed=0:01:57.29    \nframe=  162 fps=1.4 q=12.0 size=    1536KiB time=00:00:06.70 bitrate=1875.7kbits/s speed=0.0569x elapsed=0:01:57.80    \nframe=  162 fps=1.4 q=12.0 size=    1536KiB time=00:00:06.70 bitrate=1875.7kbits/s speed=0.0567x elapsed=0:01:58.31    \nframe=  162 fps=1.4 q=12.0 size=    1536KiB time=00:00:06.70 bitrate=1875.7kbits/s speed=0.0565x elapsed=0:01:58.83    \nframe=  162 fps=1.4 q=12.0 size=    1536KiB time=00:00:06.70 bitrate=1875.7kbits/s speed=0.0562x elapsed=0:01:59.35    \nframe=  162 fps=1.4 q=12.0 size=    1536KiB time=00:00:06.70 bitrate=1875.7kbits/s speed=0.056x elapsed=0:01:59.86    \nframe=  166 fps=1.4 q=34.0 size=    2048KiB time=00:00:06.87 bitrate=2440.3kbits/s speed=0.0571x elapsed=0:02:00.38    \nframe=  170 fps=1.4 q=29.0 size=    2048KiB time=00:00:07.04 bitrate=2382.6kbits/s speed=0.0582x elapsed=0:02:00.89    \nframe=  170 fps=1.4 q=29.0 size=    2048KiB time=00:00:07.04 bitrate=2382.6kbits/s speed=0.058x elapsed=0:02:01.41    \nframe=  170 fps=1.4 q=29.0 size=    2048KiB time=00:00:07.04 bitrate=2382.6kbits/s speed=0.0578x elapsed=0:02:01.92    \nframe=  172 fps=1.4 q=35.0 size=    2048KiB time=00:00:07.12 bitrate=2354.7kbits/s speed=0.0582x elapsed=0:02:02.45    \nframe=  174 fps=1.4 q=33.0 size=    2048KiB time=00:00:07.20 bitrate=2327.5kbits/s speed=0.0586x elapsed=0:02:02.96    \nframe=  178 fps=1.4 q=19.0 size=    2048KiB time=00:00:07.37 bitrate=2274.9kbits/s speed=0.0597x elapsed=0:02:03.47    \nframe=  178 fps=1.4 q=19.0 size=    2048KiB time=00:00:07.37 bitrate=2274.9kbits/s speed=0.0595x elapsed=0:02:03.98    \nframe=  178 fps=1.4 q=19.0 size=    2048KiB time=00:00:07.37 bitrate=2274.9kbits/s speed=0.0592x elapsed=0:02:04.50    \nframe=  178 fps=1.4 q=19.0 size=    2048KiB time=00:00:07.37 bitrate=2274.9kbits/s speed=0.059x elapsed=0:02:05.01    \nframe=  178 fps=1.4 q=19.0 size=    2048KiB time=00:00:07.37 bitrate=2274.9kbits/s speed=0.0587x elapsed=0:02:05.55    \nframe=  180 fps=1.4 q=34.0 size=    2048KiB time=00:00:07.45 bitrate=2249.5kbits/s speed=0.0592x elapsed=0:02:06.07    \nframe=  182 fps=1.4 q=32.0 size=    2048KiB time=00:00:07.54 bitrate=2224.6kbits/s speed=0.0596x elapsed=0:02:06.59    \nframe=  184 fps=1.4 q=34.0 size=    2048KiB time=00:00:07.62 bitrate=2200.3kbits/s speed=0.06x elapsed=0:02:07.13    \nframe=  186 fps=1.5 q=26.0 size=    2048KiB time=00:00:07.70 bitrate=2176.5kbits/s speed=0.0604x elapsed=0:02:07.66    \nframe=  186 fps=1.5 q=26.0 size=    2048KiB time=00:00:07.70 bitrate=2176.5kbits/s speed=0.0601x elapsed=0:02:08.17    \nframe=  186 fps=1.4 q=26.0 size=    2048KiB time=00:00:07.70 bitrate=2176.5kbits/s speed=0.0599x elapsed=0:02:08.74    \nframe=  186 fps=1.4 q=26.0 size=    2048KiB time=00:00:07.70 bitrate=2176.5kbits/s speed=0.0596x elapsed=0:02:09.27    \nframe=  188 fps=1.4 q=34.0 size=    2048KiB time=00:00:07.79 bitrate=2153.2kbits/s speed=0.06x elapsed=0:02:09.83    \nframe=  190 fps=1.5 q=31.0 size=    2048KiB time=00:00:07.87 bitrate=2130.4kbits/s speed=0.0604x elapsed=0:02:10.36    \nframe=  190 fps=1.5 q=31.0 size=    2048KiB time=00:00:07.87 bitrate=2130.4kbits/s speed=0.0602x elapsed=0:02:10.89    \nframe=  194 fps=1.5 q=15.0 size=    2048KiB time=00:00:08.04 bitrate=2086.3kbits/s speed=0.0612x elapsed=0:02:11.41    \nframe=  196 fps=1.5 q=34.0 size=    2048KiB time=00:00:08.12 bitrate=2064.9kbits/s speed=0.0616x elapsed=0:02:11.96    \nframe=  198 fps=1.5 q=31.0 size=    2048KiB time=00:00:08.20 bitrate=2043.9kbits/s speed=0.062x elapsed=0:02:12.47    \nframe=  202 fps=1.5 q=26.0 size=    2048KiB time=00:00:08.37 bitrate=2003.2kbits/s speed=0.063x elapsed=0:02:12.99    \nframe=  202 fps=1.5 q=26.0 size=    2048KiB time=00:00:08.37 bitrate=2003.2kbits/s speed=0.0627x elapsed=0:02:13.50    \nframe=  204 fps=1.5 q=31.0 size=    2048KiB time=00:00:08.45 bitrate=1983.5kbits/s speed=0.0631x elapsed=0:02:14.03    \nframe=  206 fps=1.5 q=27.0 size=    2048KiB time=00:00:08.54 bitrate=1964.2kbits/s speed=0.0635x elapsed=0:02:14.54    \nframe=  208 fps=1.5 q=26.0 size=    2048KiB time=00:00:08.62 bitrate=1945.2kbits/s speed=0.0639x elapsed=0:02:15.07    \nframe=  212 fps=1.6 q=33.0 size=    2048KiB time=00:00:08.79 bitrate=1908.3kbits/s speed=0.0648x elapsed=0:02:15.63    \nframe=  214 fps=1.6 q=31.0 size=    2048KiB time=00:00:08.87 bitrate=1890.4kbits/s speed=0.0652x elapsed=0:02:16.16    \nframe=  216 fps=1.6 q=29.0 size=    2048KiB time=00:00:08.87 bitrate=1890.4kbits/s speed=0.0649x elapsed=0:02:16.69    \nframe=  218 fps=1.6 q=25.0 size=    2048KiB time=00:00:09.04 bitrate=1855.5kbits/s speed=0.0659x elapsed=0:02:17.26    \nframe=  218 fps=1.6 q=25.0 size=    2048KiB time=00:00:09.04 bitrate=1855.5kbits/s speed=0.0656x elapsed=0:02:17.86    \nframe=  220 fps=1.6 q=34.0 size=    2048KiB time=00:00:09.12 bitrate=1838.6kbits/s speed=0.0659x elapsed=0:02:18.49    \nframe=  222 fps=1.6 q=33.0 size=    2048KiB time=00:00:09.20 bitrate=1822.0kbits/s speed=0.0662x elapsed=0:02:19.03    \nframe=  232 fps=1.7 q=34.0 size=    2048KiB time=00:00:09.62 bitrate=1743.1kbits/s speed=0.069x elapsed=0:02:19.55    \n[out#0/matroska @ 000001ad4d1f8ec0] video:2661KiB audio:0KiB subtitle:0KiB other streams:0KiB global headers:0KiB muxing overhead: 0.065280%\nframe=  240 fps=1.7 q=30.0 Lsize=    2663KiB time=00:00:09.95 bitrate=2190.7kbits/s speed=0.0713x elapsed=0:02:19.66    \n",
  "seconds": 141.17286252975464,
  "probe_out": {}
}